# xmcd
#
# Track frame offsets:
#	150
#	14885
#	29438
#	44996
#	58463
#	75713
#	93344
#	108392
#	124979
#	140465
#	158818
#	174412
#
# Disc length: 2556 seconds
#
# Revision: 2
# Processed by: cddbd v1.5.2PL0 Copyright (c) Steve Scherf et al.
# Submitted via: EasyCDDAExtractor 12.0.1.1
#
DISCID=af09fa0c
DTITLE=Bellamy Brothers - Number One Hits
DYEAR=2008
DGENRE=Country
TTITLE0=Let Your Love Flow
TTITLE1=If I Said You Had A Beautiful Body Would You Hold It Against Me
TTITLE2=Redneck Girl
TTITLE3=Dou You Love As Good As You Look
TTITLE4=When I'm Away From You
TTITLE5=For All The Wrong Reasons
TTITLE6=Dancing Cowboys
TTITLE7=Sugar Daddy
TTITLE8=I Need More Of You
TTITLE9=Old Hippie
TTITLE10=Kids Of The Baby Boom
TTITLE11=Too Much Is Not Enough (w. The Forrester Sisters)
EXTD=
EXTT0=
EXTT1=
EXTT2=
EXTT3=
EXTT4=
EXTT5=
EXTT6=
EXTT7=
EXTT8=
EXTT9=
EXTT10=
EXTT11=
PLAYORDER=
